{"title":"Santa Claus 1985 DVDrip English Klam","uid":6850653,"size":1263427532,"categoryP":"video","categoryS":"movies","magnet":"?xt=urn:btih:bd1958131648284ef2f59f7efed656a3c6eda5eb&amp;dn=Santa+Claus+1985+DVDrip+English+Klam&amp;tr=udp%3A%2F%2Ftracker.openbittorrent.com%3A80&amp;tr=udp%3A%2F%2Fopen.demonii.com%3A1337&amp;tr=udp%3A%2F%2Ftracker.coppersurfer.tk%3A6969&amp;tr=udp%3A%2F%2Fexodus.desync.com%3A6969","seeders":2,"leechers":0,"uploader":"Klambake","files":-1,"time":1322509205,"description":"With: Dudley Moore, John Lithgow en David Huddleston\n\nIn de eerste helft van de film zien we hoe de Kerstman honderden jaren geleden het eeuwige leven kreeg, en de uitverkorene werd om alle kinderen ter wereld cadeaus te brengen. In de tweede helft van de film zien we hoe Patch aan de Kerstman wil bewijzen dat hij een goede elf kan zijn. Hij gaat in zee met een kwaadaardige speelgoedfabrikant die er op uit is om de Kerstman uit de markt te drukken.\n\nThe first half of this film, set hundreds of years ago, shows how the old man who eventually became Santa Claus was given immortality and chosen to deliver toys to all the children of the world. The second half moves into the modern era, in which Patch, the head elf, strikes out on his own and falls in with an evil toy manufacturer who wants to corner the market and eliminate Santa Claus. \n\n------------------------ Dutch Friends ------------------------\n---------------------------------------------------------------\n-- Bezoek ook eens mijn vrienden op: http://www.Film-Test.nl --\n----- voor mijn Nederlandse Sync. ondertitels ---- en meer ----\n------- http://www.Film-Test.nl ---- voor Films en meer -------\n---------------------------------------------------------------\n\nGeneral:\n\nComplete name                    : Santa Claus\\Santa Claus.avi\nFormat                           : AVI\nFormat/Info                      : Audio Video Interleave\nFile size                        : 1.18 GiB\nDuration                         : 1h 43mn\nOverall bit rate                 : 1 624 Kbps\n\nVideo:\n\nFormat                           : MPEG-4 Visual\nFormat profile                   : Simple@L3\nFormat settings, BVOP            : No\nFormat settings, QPel            : No\nFormat settings, GMC             : No warppoints\nFormat settings, Matrix          : Default (H.263)\nCodec ID                         : XVID\nCodec ID/Hint                    : XviD\nDuration                         : 1h 43mn\nBit rate                         : 1 421 Kbps\nWidth                            : 720 pixels\nHeight                           : 328 pixels\nDisplay aspect ratio             : 2.2:1\nFrame rate                       : 25.000 fps\nColor space                      : YUV\nChroma subsampling               : 4:2:0\nBit depth                        : 8 bits\nScan type                        : Progressive\nCompression mode                 : Lossy\nBits/(Pixel*Frame)               : 0.241\nStream size                      : 1.03 GiB (88%)\nWriting library                  : XviD 1.1.2 (UTC 2006-11-01)\n\nAudio:\n\nFormat                           : AC-3\nFormat/Info                      : Audio Coding 3\nMode extension                   : CM (complete main)\nCodec ID                         : 2000\nDuration                         : 1h 43mn\nBit rate mode                    : Constant\nBit rate                         : 192 Kbps\nChannel(s)                       : 2 channels\nChannel positions                : Front: L R\nSampling rate                    : 48.0 KHz\nBit depth                        : 16 bits\nCompression mode                 : Lossy\nStream size                      : 142 MiB (12%)\nAlignment                        : Aligned on interleaves\nInterleave, duration             : 32 ms (0.80 video frame)\nInterleave, preload duration     : 1280 ms\n\n","torrent":{"xt":"urn:btih:bd1958131648284ef2f59f7efed656a3c6eda5eb","amp;dn":"Santa+Claus+1985+DVDrip+English+Klam","amp;tr":["udp%3A%2F%2Ftracker.openbittorrent.com%3A80","udp%3A%2F%2Fopen.demonii.com%3A1337","udp%3A%2F%2Ftracker.coppersurfer.tk%3A6969","udp%3A%2F%2Fexodus.desync.com%3A6969"],"infoHash":"bd1958131648284ef2f59f7efed656a3c6eda5eb","infoHashBuffer":{"type":"Buffer","data":[189,25,88,19,22,72,40,78,242,245,159,126,254,214,86,163,198,237,165,235]},"announce":[],"urlList":[]}}